<?xml version="1.0" encoding="UTF-8"?>
<svg id="Camada_1" xmlns="http://www.w3.org/2000/svg" version="1.1" viewBox="0 0 172 117">
  <!-- Generator: Adobe Illustrator 29.8.3, SVG Export Plug-In . SVG Version: 2.1.1 Build 3)  -->
  <defs>
    <style>
      .st0 {
        fill: #1e1e1c;
      }
    </style>
  </defs>
  <path d="M104.8,4.6h-45.7v50.4h45.7l-24.5-25.2,24.5-25.2ZM99.4,6.9l-20.7,21.3-17.2-17.8v-3.4h37.9ZM99.4,52.8h-37.9V13.6l15.6,16.2h0s22.3,22.9,22.3,22.9Z"/>
  <polygon points="87.6 30.1 112 4.6 108.8 4.6 84.3 30.1 109.6 55 112.9 55 87.6 30.1"/>
  <g>
    <path class="st0" d="M14,54.7c1.2,0,2.3.2,3.3.5,1,.3,1.8.8,2.5,1.4.7.6,1.2,1.4,1.6,2.2.4.9.6,1.9.6,2.9v16.5c0,1.2-.2,2.2-.7,3-.5.8-1.2,1.4-2,1.9.9.5,1.6,1.1,2,1.8.5.8.7,1.7.7,2.9v17.5c0,2.2-.7,3.9-2.2,5.2-1.5,1.3-3.4,1.9-5.9,1.9h-7.3c-.3,0-.5,0-.6-.2-.1-.2-.2-.4-.2-.6v-56c0-.2,0-.5.2-.6.1-.2.4-.2.6-.2h7.4ZM16.3,61.7c0-.7-.2-1.3-.6-1.8-.4-.5-1-.7-1.9-.7h-2.5v21.4h2.5c.8,0,1.5-.2,1.9-.7.4-.5.6-1.1.6-1.8v-16.5ZM16.3,87.8c0-.7-.2-1.3-.6-1.8-.4-.5-1-.7-1.8-.7h-2.5v22.5h2.5c.8,0,1.5-.2,1.9-.7.4-.5.6-1.1.6-1.8v-17.5Z"/>
    <path class="st0" d="M51.9,63.7c1.2,0,2.3.2,3.3.5,1,.3,1.8.8,2.5,1.4.7.6,1.2,1.3,1.6,2.2s.6,1.9.6,2.9v15c0,1.2-.2,2.2-.7,3-.5.8-1.2,1.4-2,1.9.9.5,1.6,1.1,2,1.8.5.8.7,1.7.7,2.9v16.1c0,.2,0,.5-.2.6-.1.2-.4.2-.6.2h-2.4c-.8,0-1.4-.2-1.8-.7-.4-.5-.6-1-.6-1.8v-14.6c0-.7-.2-1.3-.6-1.8s-1-.7-1.9-.7h-2.5v17c0,.7-.2,1.3-.6,1.8-.4.5-1,.7-1.8.7h-2.4c-.3,0-.5,0-.6-.2-.1-.2-.2-.4-.2-.6v-46.9c0-.2,0-.5.2-.6.1-.2.4-.2.6-.2h7.4ZM49.4,68.3v20h2.5c.8,0,1.5-.2,1.9-.7.4-.5.6-1.1.6-1.8v-15c0-.7-.2-1.3-.6-1.8-.4-.5-1-.7-1.8-.7h-2.5Z"/>
    <path class="st0" d="M90.8,63.7c.3,0,.5,0,.6.2.1.2.2.4.3.6l4.6,46.8c0,.2,0,.5-.2.7-.2.2-.5.3-.9.3h-2.1c-.7,0-1.3-.2-1.8-.6-.5-.4-.7-.9-.8-1.5l-.4-6.6h-3.5l-.4,6.6c0,.6-.3,1.1-.8,1.5-.5.4-1,.6-1.8.6h-2.1c-.4,0-.7-.1-.9-.3-.2-.2-.3-.5-.2-.7l4.6-46.8c0-.2.1-.4.3-.6.1-.2.3-.2.6-.2h4.8ZM87,99.1h2.9l-1.5-23.5-1.4,23.5Z"/>
    <path class="st0" d="M121.8,112.4c-.3,0-.5,0-.6-.2s-.2-.4-.3-.6l-4.6-46.8c0-.2,0-.5.2-.7.2-.2.5-.3.9-.3h2.1c.7,0,1.3.2,1.8.6.5.4.7.9.8,1.5l2.2,34.8,2.2-34.8c0-.6.3-1.1.8-1.5.5-.4,1-.6,1.8-.6h2.1c.4,0,.7.1.9.3.2.2.3.5.2.7l-4.6,46.8c0,.2-.1.4-.3.6-.1.2-.3.2-.6.2h-4.8Z"/>
    <path class="st0" d="M165.3,54.7c.3,0,.5,0,.6.2.2.1.3.3.3.6v1.4c0,.7-.2,1.3-.6,1.7-.4.4-.9.7-1.6.7h-5.2v22.2h5.6c.3,0,.5,0,.6.2.2.1.3.3.3.6v1.4c0,.7-.2,1.3-.6,1.7-.4.4-.9.7-1.6.7h-4.4v21.7h5.2c.6,0,1.2.2,1.6.7.4.4.6,1,.6,1.7v1.4c0,.3,0,.5-.3.6-.2.1-.4.2-.6.2h-11.3c-.3,0-.5,0-.6-.2-.1-.2-.2-.4-.2-.6v-56c0-.2,0-.5.2-.6.1-.2.4-.2.6-.2h11.3Z"/>
  </g>
</svg>